# xmcd
#
# Track frame offsets: 
#        151
#        13636
#        28482
#        43823
#        59909
#        76770
#        91452
#        104831
#        117458
#        134152
#        148355
#        163509
#        179873
#        195188
#        209420
#        227311
#
# Disc length: 3229 seconds
#
# Revision: 1
# Processed by: cddbd v1.5.2PL0 Copyright (c) Steve Scherf et al.
# Submitted via: ExactAudioCopy v0.99pb4
#
DISCID=f70c9b10
DTITLE=江惠 - 江蕙懷念老歌1
DYEAR=1900
DGENRE=Country
TTITLE0=廣東花
TTITLE1=黯淡的月
TTITLE2=黃昏的故鄉
TTITLE3=五月花
TTITLE4=秋風夜雨
TTITLE5=淡水暮色
TTITLE6=懷春曲
TTITLE7=相思燈
TTITLE8=愛與恨
TTITLE9=港都夜雨
TTITLE10=酒女夢
TTITLE11=山頂黑狗兄
TTITLE12=夜霧的港口
TTITLE13=再會呀！港都
TTITLE14=想著彼個人
TTITLE15=深情難捨
EXTD=
EXTT0=
EXTT1=
EXTT2=
EXTT3=
EXTT4=
EXTT5=
EXTT6=
EXTT7=
EXTT8=
EXTT9=
EXTT10=
EXTT11=
EXTT12=
EXTT13=
EXTT14=
EXTT15=
PLAYORDER=
